<?xml version="1.0" encoding="UTF-8"?>
<svg width="515px" height="189px" viewBox="0 0 515 189" version="1.1" xmlns="http://www.w3.org/2000/svg" xmlns:xlink="http://www.w3.org/1999/xlink">
    <!-- Generator: Sketch 57.1 (83088) - https://sketch.com -->
    <title>Group 2</title>
    <desc>Created with Sketch.</desc>
    <g id="Page-1" stroke="none" stroke-width="1" fill="none" fill-rule="evenodd">
        <g id="MAINPAGE" transform="translate(-363.000000, -393.000000)" fill-rule="nonzero">
            <g id="Group-2" transform="translate(362.000000, 391.000000)">
                <path d="M111.808594,39.0585938 C111.808594,46.0898789 111.339848,53.0331688 110.402344,59.8886719 C109.464839,66.7441749 108.351569,73.5116854 107.0625,80.1914062 C106.710936,81.9492275 106.183597,84.790996 105.480469,88.7167969 C104.77734,92.6425978 103.927739,97.0077885 102.931641,101.8125 C101.935542,106.617212 100.734382,111.59763 99.328125,116.753906 C97.921868,121.910182 96.3691491,126.597635 94.6699219,130.816406 C92.9706946,135.035177 91.0957134,138.521471 89.0449219,141.275391 C86.9941304,144.029311 84.7968867,145.40625 82.453125,145.40625 C80.1093633,145.40625 77.8535265,144.234387 75.6855469,141.890625 C73.5175673,139.546863 71.5253997,136.587908 69.7089844,133.013672 C67.892569,129.439435 66.2226639,125.425804 64.6992188,120.972656 C63.1757736,116.519509 61.8574274,112.212911 60.7441406,108.052734 C59.6308538,103.892557 58.6933632,100.084002 57.9316406,96.6269531 C57.1699181,93.1699046 56.613283,90.5625088 56.2617188,88.8046875 C55.7929664,90.3281326 55.0605519,92.7597489 54.0644531,96.0996094 C53.0683544,99.4394698 51.8086014,103.189432 50.2851562,107.349609 C48.7617111,111.509786 47.0625094,115.757791 45.1875,120.09375 C43.3124906,124.429709 41.3496196,128.414044 39.2988281,132.046875 C37.2480366,135.679706 35.1093861,138.667957 32.8828125,141.011719 C30.6562389,143.35548 28.4296986,144.527344 26.203125,144.527344 C23.2734229,144.527344 20.6953236,143.238294 18.46875,140.660156 C16.2421764,138.082018 14.3671951,134.771505 12.84375,130.728516 C11.3203049,126.685527 10.0312553,122.173853 8.9765625,117.193359 C7.92186973,112.212866 7.10156543,107.29104 6.515625,102.427734 C5.92968457,97.5644288 5.46093926,93.0234586 5.109375,88.8046875 C4.75781074,84.5859164 4.52343809,81.2461061 4.40625,78.7851562 C4.05468574,73.1601281 3.73242334,67.6523707 3.43945312,62.2617188 C3.14648291,56.8710668 3,51.3633094 3,45.7382812 C3,43.7460838 3.05859316,41.0215017 3.17578125,37.5644531 C3.29296934,34.1074046 3.73241807,30.7090011 4.49414062,27.3691406 C5.25586318,24.0292802 6.42772646,21.099622 8.00976562,18.5800781 C9.59180479,16.0605343 11.9062348,14.6835949 14.953125,14.4492188 C17.5312629,14.3320307 19.7578031,15.3867076 21.6328125,17.6132812 C23.5078219,19.8398549 25.0898373,22.7988097 26.3789062,26.4902344 C27.6679752,30.1816591 28.6933556,34.2831806 29.4550781,38.7949219 C30.2168007,43.3066632 30.8027323,47.6718539 31.2128906,51.890625 C31.6230489,56.1093961 31.8867182,59.9765449 32.0039062,63.4921875 C32.1210943,67.0078301 32.1210943,69.5859293 32.0039062,71.2265625 L31.828125,75.796875 C32.1796893,74.2734299 32.7949175,71.8711102 33.6738281,68.5898438 C34.5527388,65.3085773 35.6367123,61.5879114 36.9257812,57.4277344 C38.2148502,53.2675573 39.5917896,48.9902563 41.0566406,44.5957031 C42.5214917,40.2011499 44.0742105,36.1875182 45.7148438,32.5546875 C47.355477,28.9218568 48.9960855,25.9043089 50.6367188,23.5019531 C52.277352,21.0995974 53.8593674,19.8398443 55.3828125,19.7226562 C57.37501,19.6054682 59.2792878,20.7773314 61.0957031,23.2382812 C62.9121185,25.6992311 64.5527271,28.8925585 66.0175781,32.8183594 C67.4824292,36.7441603 68.8007754,41.109351 69.9726562,45.9140625 C71.1445371,50.718774 72.1699175,55.3769306 73.0488281,59.8886719 C73.9277388,64.4004132 74.6015602,68.4726381 75.0703125,72.1054688 C75.5390648,75.7382994 75.8906238,78.3163986 76.125,79.8398438 C76.2421881,77.9648344 76.5351539,75.0058796 77.0039062,70.9628906 C77.4726586,66.9199017 78.1171834,62.408228 78.9375,57.4277344 C79.7578166,52.4472407 80.783197,47.3496354 82.0136719,42.1347656 C83.2441468,36.9198958 84.6796793,32.1445529 86.3203125,27.8085938 C87.9609457,23.4726346 89.835927,19.9277481 91.9453125,17.1738281 C94.054698,14.4199081 96.3984246,13.0429688 98.9765625,13.0429688 C101.906265,13.0429688 104.249991,14.009756 106.007812,15.9433594 C107.765634,17.8769628 109.054683,20.2206894 109.875,22.9746094 C110.695317,25.7285294 111.222655,28.5995944 111.457031,31.5878906 C111.691407,34.5761868 111.808594,37.0663963 111.808594,39.0585938 Z M208.851562,116.226562 C208.851562,118.570324 208.646486,121.382796 208.236328,124.664062 C207.82617,127.945329 207.035162,131.080063 205.863281,134.068359 C204.6914,137.056656 203.109385,139.576162 201.117188,141.626953 C199.12499,143.677745 196.488298,144.703125 193.207031,144.703125 C188.871072,144.703125 185.619151,143.12111 183.451172,139.957031 C181.283192,136.792953 179.730473,133.013694 178.792969,128.619141 C177.855464,124.224587 177.298829,119.74221 177.123047,115.171875 C176.947265,110.60154 176.800782,106.968763 176.683594,104.273438 C168.246052,105.679695 159.925822,106.910151 151.722656,107.964844 C151.48828,110.66017 150.990238,113.99998 150.228516,117.984375 C149.466793,121.96877 148.29493,125.806622 146.712891,129.498047 C145.130851,133.189472 143.080091,136.382799 140.560547,139.078125 C138.041003,141.773451 134.964862,143.121094 131.332031,143.121094 C128.519517,143.121094 126.322274,142.095713 124.740234,140.044922 C123.158195,137.99413 121.957035,135.562514 121.136719,132.75 C120.316402,129.937486 119.81836,127.037124 119.642578,124.048828 C119.466796,121.060532 119.378906,118.570322 119.378906,116.578125 C119.378906,109.898404 119.906245,103.306673 120.960938,96.8027344 C122.01563,90.2987956 123.246087,83.824251 124.652344,77.3789062 C125.355472,73.9804518 126.292963,69.9961166 127.464844,65.4257812 C128.636725,60.8554459 130.072257,56.1386962 131.771484,51.2753906 C133.470712,46.4120851 135.462879,41.6074456 137.748047,36.8613281 C140.033215,32.1152106 142.64061,27.8672062 145.570312,24.1171875 C148.500015,20.3671688 151.839825,17.3203242 155.589844,14.9765625 C159.339862,12.6328008 163.499977,11.4609375 168.070312,11.4609375 C172.52346,11.4609375 176.390609,12.4570213 179.671875,14.4492188 C182.953141,16.4414162 185.824206,19.0781086 188.285156,22.359375 C190.746106,25.6406414 192.796867,29.3613073 194.4375,33.5214844 C196.078133,37.6816614 197.455073,41.9003692 198.568359,46.1777344 C199.681646,50.4550995 200.619137,54.6445107 201.380859,58.7460938 C202.142582,62.8476768 202.816403,66.4804529 203.402344,69.6445312 C204.925789,77.2617568 206.214838,84.9667579 207.269531,92.7597656 C208.324224,100.552773 208.851562,108.374961 208.851562,116.226562 Z M174.925781,73.5117188 C174.925781,72.1054617 174.837892,69.7910317 174.662109,66.5683594 C174.486327,63.345687 174.105472,60.123063 173.519531,56.9003906 C172.933591,53.6777183 172.025397,50.8066532 170.794922,48.2871094 C169.564447,45.7675655 167.894542,44.5078125 165.785156,44.5078125 C164.613275,44.5078125 163.500005,45.2988202 162.445312,46.8808594 C161.39062,48.4628985 160.453129,50.4550661 159.632812,52.8574219 C158.812496,55.2597776 158.080081,57.9257666 157.435547,60.8554688 C156.791012,63.7851709 156.234377,66.5976428 155.765625,69.2929688 C155.296873,71.9882947 154.945314,74.419911 154.710938,76.5878906 C154.476561,78.7558702 154.300782,80.3085891 154.183594,81.2460938 C161.214879,80.6601533 168.128872,79.7812559 174.925781,78.609375 L174.925781,73.5117188 Z M304.839844,48.0234375 C304.839844,54.3515941 303.462904,60.5624695 300.708984,66.65625 C297.955064,72.7500305 294.292992,78.2284913 289.722656,83.0917969 C285.152321,87.9551024 279.937529,91.9394376 274.078125,95.0449219 C268.218721,98.1504062 262.183625,99.8789045 255.972656,100.230469 C255.855468,102.339854 255.767578,105.005843 255.708984,108.228516 C255.65039,111.451188 255.445314,114.820295 255.09375,118.335938 C254.742186,121.85158 254.244144,125.36717 253.599609,128.882812 C252.955075,132.398455 252.017584,135.562486 250.787109,138.375 C249.556634,141.187514 247.974619,143.472647 246.041016,145.230469 C244.107412,146.98829 241.734389,147.867188 238.921875,147.867188 C235.640609,147.867188 233.033213,146.783214 231.099609,144.615234 C229.166006,142.447255 227.701177,139.839859 226.705078,136.792969 C225.708979,133.746079 225.035158,130.552751 224.683594,127.212891 C224.332029,123.87303 224.097657,121.031262 223.980469,118.6875 C223.746093,115.289046 223.59961,111.949235 223.541016,108.667969 C223.482422,105.386702 223.453125,102.046892 223.453125,98.6484375 L223.453125,90.1230469 C223.453125,85.9628698 223.482422,81.2168235 223.541016,75.8847656 C223.59961,70.5527077 223.687499,64.9863571 223.804688,59.1855469 C223.921876,53.3847366 224.097655,47.9941655 224.332031,43.0136719 C224.566407,38.0331782 224.830077,33.7851738 225.123047,30.2695312 C225.416017,26.7538887 225.796873,24.7031279 226.265625,24.1171875 C226.382813,24 226.734372,23.7363302 227.320312,23.3261719 C227.906253,22.9160136 228.550778,22.5058614 229.253906,22.0957031 C229.957035,21.6855448 230.60156,21.3046893 231.1875,20.953125 C231.77344,20.6015607 232.183593,20.3671881 232.417969,20.25 C237.808621,17.2031098 243.72653,14.5664174 250.171875,12.3398438 C256.61722,10.1132701 263.003875,9 269.332031,9 C274.722683,9 279.615212,10.0839735 284.009766,12.2519531 C288.404319,14.4199327 292.154281,17.2909978 295.259766,20.8652344 C298.36525,24.439471 300.738273,28.5995856 302.378906,33.3457031 C304.019539,38.0918206 304.839844,42.9843498 304.839844,48.0234375 Z M274.429688,52.0664062 C274.429688,49.7226445 273.873052,47.6718838 272.759766,45.9140625 C271.646479,44.1562412 269.800794,43.2773438 267.222656,43.2773438 C264.996083,43.2773438 262.769542,43.7167925 260.542969,44.5957031 C258.316395,45.4746138 256.265634,46.3828078 254.390625,47.3203125 C254.742189,51.4218955 255.064452,55.4062307 255.357422,59.2734375 C255.650392,63.1406443 255.679689,67.1249795 255.445312,71.2265625 C257.320322,70.2890578 259.371083,69.2050843 261.597656,67.9746094 C263.82423,66.7441345 265.874991,65.3671951 267.75,63.84375 C269.625009,62.3203049 271.207025,60.5918065 272.496094,58.6582031 C273.785163,56.7245997 274.429688,54.5273561 274.429688,52.0664062 Z M406.277344,80.5429688 C406.277344,85.3476803 406.042971,90.2988026 405.574219,95.3964844 C405.105466,100.494166 404.285162,105.445288 403.113281,110.25 C401.9414,115.054712 400.330088,119.595682 398.279297,123.873047 C396.228505,128.150412 393.62111,131.900375 390.457031,135.123047 C387.292953,138.345719 383.484397,140.894522 379.03125,142.769531 C374.578103,144.644541 369.363311,145.582031 363.386719,145.582031 C354.597612,145.582031 346.951204,143.531271 340.447266,139.429688 C333.943327,135.328104 328.523459,130.084016 324.1875,123.697266 C319.851541,117.310515 316.628917,110.162149 314.519531,102.251953 C312.410146,94.3417573 311.355469,86.5195699 311.355469,78.7851562 L311.355469,76.5 C311.355469,75.7968715 311.414062,75.1523467 311.53125,74.5664062 C311.648438,72.1054564 311.853514,68.7656461 312.146484,64.546875 C312.439455,60.3281039 312.937496,55.8164303 313.640625,51.0117188 C314.343754,46.2070072 315.251948,41.2851814 316.365234,36.2460938 C317.478521,31.2070061 318.94335,26.6953324 320.759766,22.7109375 C322.576181,18.7265426 324.773425,15.4453254 327.351562,12.8671875 C329.9297,10.2890496 332.976545,9 336.492188,9 C339.070325,9 341.238272,9.76171113 342.996094,11.2851562 C344.753915,12.8086014 346.189448,14.7128792 347.302734,16.9980469 C348.416021,19.2832146 349.207029,21.6855343 349.675781,24.2050781 C350.144534,26.724622 350.378906,29.039052 350.378906,31.1484375 C350.378906,34.3125158 350.056644,37.5058433 349.412109,40.7285156 C348.767575,43.951188 348.152347,47.1445154 347.566406,50.3085938 C346.628902,55.3476814 345.86719,60.3866936 345.28125,65.4257812 C344.69531,70.4648689 344.402344,75.6210674 344.402344,80.8945312 C344.402344,83.5898572 344.548827,86.8710744 344.841797,90.7382812 C345.134767,94.6054881 345.867182,98.326154 347.039062,101.900391 C348.210943,105.474627 349.880849,108.521472 352.048828,111.041016 C354.216808,113.560559 357.175763,114.820312 360.925781,114.820312 C364.558612,114.820312 367.458974,113.589856 369.626953,111.128906 C371.794933,108.667956 373.406245,105.738298 374.460938,102.339844 C375.51563,98.9413893 376.189452,95.3672062 376.482422,91.6171875 C376.775392,87.8671688 376.921875,84.6445447 376.921875,81.9492188 C376.921875,74.2148051 376.27735,66.5683972 374.988281,59.0097656 C373.699212,51.4511341 372.000011,43.9219125 369.890625,36.421875 C369.304685,34.4296775 368.806643,32.43751 368.396484,30.4453125 C367.986326,28.453115 367.78125,26.4609475 367.78125,24.46875 C367.78125,21.1874836 368.748037,18.3164186 370.681641,15.8554688 C372.615244,13.3945189 375.339826,12.1640625 378.855469,12.1640625 C381.785171,12.1640625 384.509753,13.3066292 387.029297,15.5917969 C389.548841,17.8769646 391.804678,20.8652159 393.796875,24.5566406 C395.789072,28.2480653 397.517571,32.3788834 398.982422,36.9492188 C400.447273,41.5195541 401.707026,46.0605243 402.761719,50.5722656 C403.816412,55.0840069 404.607419,59.3906045 405.134766,63.4921875 C405.662112,67.5937705 405.984374,70.9335809 406.101562,73.5117188 C406.218751,74.6835996 406.277344,75.8261663 406.277344,76.9394531 C406.277344,78.0527399 406.277344,79.2538998 406.277344,80.5429688 Z M515.097656,80.5429688 C515.097656,85.3476803 514.863284,90.2988026 514.394531,95.3964844 C513.925779,100.494166 513.105475,105.445288 511.933594,110.25 C510.761713,115.054712 509.150401,119.595682 507.099609,123.873047 C505.048818,128.150412 502.441422,131.900375 499.277344,135.123047 C496.113265,138.345719 492.30471,140.894522 487.851562,142.769531 C483.398415,144.644541 478.183624,145.582031 472.207031,145.582031 C463.417925,145.582031 455.771517,143.531271 449.267578,139.429688 C442.763639,135.328104 437.343772,130.084016 433.007812,123.697266 C428.671853,117.310515 425.449229,110.162149 423.339844,102.251953 C421.230458,94.3417573 420.175781,86.5195699 420.175781,78.7851562 L420.175781,76.5 C420.175781,75.7968715 420.234374,75.1523467 420.351562,74.5664062 C420.468751,72.1054564 420.673827,68.7656461 420.966797,64.546875 C421.259767,60.3281039 421.757809,55.8164303 422.460938,51.0117188 C423.164066,46.2070072 424.07226,41.2851814 425.185547,36.2460938 C426.298834,31.2070061 427.763663,26.6953324 429.580078,22.7109375 C431.396493,18.7265426 433.593737,15.4453254 436.171875,12.8671875 C438.750013,10.2890496 441.796857,9 445.3125,9 C447.890638,9 450.058585,9.76171113 451.816406,11.2851562 C453.574228,12.8086014 455.00976,14.7128792 456.123047,16.9980469 C457.236334,19.2832146 458.027341,21.6855343 458.496094,24.2050781 C458.964846,26.724622 459.199219,29.039052 459.199219,31.1484375 C459.199219,34.3125158 458.876956,37.5058433 458.232422,40.7285156 C457.587887,43.951188 456.972659,47.1445154 456.386719,50.3085938 C455.449214,55.3476814 454.687503,60.3866936 454.101562,65.4257812 C453.515622,70.4648689 453.222656,75.6210674 453.222656,80.8945312 C453.222656,83.5898572 453.369139,86.8710744 453.662109,90.7382812 C453.95508,94.6054881 454.687494,98.326154 455.859375,101.900391 C457.031256,105.474627 458.701161,108.521472 460.869141,111.041016 C463.03712,113.560559 465.996075,114.820312 469.746094,114.820312 C473.378924,114.820312 476.279286,113.589856 478.447266,111.128906 C480.615245,108.667956 482.226557,105.738298 483.28125,102.339844 C484.335943,98.9413893 485.009764,95.3672062 485.302734,91.6171875 C485.595705,87.8671688 485.742188,84.6445447 485.742188,81.9492188 C485.742188,74.2148051 485.097663,66.5683972 483.808594,59.0097656 C482.519525,51.4511341 480.820323,43.9219125 478.710938,36.421875 C478.124997,34.4296775 477.626955,32.43751 477.216797,30.4453125 C476.806639,28.453115 476.601562,26.4609475 476.601562,24.46875 C476.601562,21.1874836 477.56835,18.3164186 479.501953,15.8554688 C481.435557,13.3945189 484.160139,12.1640625 487.675781,12.1640625 C490.605483,12.1640625 493.330066,13.3066292 495.849609,15.5917969 C498.369153,17.8769646 500.62499,20.8652159 502.617188,24.5566406 C504.609385,28.2480653 506.337883,32.3788834 507.802734,36.9492188 C509.267585,41.5195541 510.527338,46.0605243 511.582031,50.5722656 C512.636724,55.0840069 513.427732,59.3906045 513.955078,63.4921875 C514.482425,67.5937705 514.804687,70.9335809 514.921875,73.5117188 C515.039063,74.6835996 515.097656,75.8261663 515.097656,76.9394531 C515.097656,78.0527399 515.097656,79.2538998 515.097656,80.5429688 Z" id="WAPUU" fill="#000000" transform="translate(259.048828, 78.433594) rotate(-2.000000) translate(-259.048828, -78.433594) "></path>
                <path d="M298,121.696429 C298,123.290824 297.380356,124.741703 296.141051,126.049107 C294.901745,127.356512 293.408245,128.504459 291.660506,129.492985 C289.912767,130.48151 288.117389,131.29464 286.274319,131.932398 C284.431249,132.570156 282.905972,133.01658 281.698444,133.271684 C281.19001,138.182423 280.792803,143.077144 280.506809,147.955995 C280.220816,152.834846 280.077821,157.729567 280.077821,162.640306 C280.077821,165.255115 280.141374,167.837997 280.268482,170.389031 C280.395591,172.940064 280.459144,175.491059 280.459144,178.042092 C280.459144,179.190057 280.347926,180.44961 280.125486,181.820791 C279.903047,183.191971 279.521728,184.483412 278.981518,185.695153 C278.441307,186.906894 277.694557,187.927292 276.741245,188.756378 C275.787933,189.585463 274.612199,190 273.214008,190 C271.5616,190 270.242871,189.537632 269.257782,188.612883 C268.272693,187.688133 267.510055,186.556129 266.969844,185.216837 C266.429634,183.877544 266.064203,182.458553 265.873541,180.959821 C265.682878,179.461089 265.587549,178.105873 265.587549,176.894133 C265.46044,173.067583 265.365111,169.225147 265.301556,165.366709 C265.238002,161.508272 265.206226,157.633948 265.206226,153.743622 C265.206226,150.491055 265.222114,147.302312 265.253891,144.177296 C265.285668,141.05228 265.301556,137.863537 265.301556,134.610969 C264.411798,134.738521 263.506165,134.834183 262.58463,134.897959 C261.663095,134.961735 260.725686,134.993622 259.772374,134.993622 C259.009724,134.993622 258.008761,134.913904 256.769455,134.754464 C255.530149,134.595025 254.338527,134.308038 253.194553,133.893495 C252.050584,133.478952 251.065503,132.904978 250.2393,132.171556 C249.413096,131.438134 249,130.497455 249,129.34949 C249,127.436215 249.74675,125.762125 251.240272,124.327168 C252.733795,122.892212 254.64039,121.648602 256.960117,120.596301 C259.279843,119.544 261.853747,118.651152 264.681907,117.91773 C267.510066,117.184308 270.306406,116.610334 273.071012,116.195791 C275.835617,115.781248 278.377745,115.478317 280.697471,115.28699 C283.017197,115.095662 284.812575,115 286.083658,115 C287.291186,115 288.578138,115.047831 289.944553,115.143495 C291.310967,115.239159 292.597919,115.510202 293.805447,115.956633 C295.012976,116.403063 296.013939,117.0727 296.808366,117.965561 C297.602793,118.858423 298,120.102033 298,121.696429 Z M340,137.241594 C340,141.59529 338.992481,145.507247 336.977413,148.977584 C334.962344,152.447921 332.286122,155.508081 328.948665,158.158157 C329.956199,159.672486 330.995203,161.439176 332.065708,163.458281 C333.136213,165.477387 334.096505,167.60688 334.946612,169.846824 C335.796719,172.086769 336.489388,174.32668 337.024641,176.566625 C337.559893,178.80657 337.827515,180.872967 337.827515,182.765878 C337.827515,184.784983 337.339498,186.598996 336.36345,188.20797 C335.387401,189.816945 333.73444,190.62142 331.404517,190.62142 C329.45242,190.62142 327.767974,189.674978 326.351129,187.782067 C324.934284,185.889156 323.674886,183.633471 322.572895,181.014944 C321.470905,178.396417 320.463386,175.730607 319.550308,173.017435 C318.63723,170.304262 317.771394,168.127447 316.952772,166.486924 C315.819296,166.865506 314.717322,167.291405 313.646817,167.764633 C312.576312,168.23786 311.474338,168.695307 310.340862,169.136986 C310.277892,170.525121 310.167694,172.433778 310.010267,174.863014 C309.85284,177.29225 309.506505,179.705675 308.971253,182.103362 C308.436,184.50105 307.633133,186.583221 306.562628,188.349938 C305.492123,190.116655 304.01233,191 302.123203,191 C300.045175,191 298.439431,190.148203 297.305955,188.444583 C296.172479,186.740963 295.369612,184.721888 294.897331,182.387298 C294.425049,180.052707 294.157427,177.67083 294.094456,175.241594 C294.031485,172.812358 294,170.903701 294,169.515567 C294,166.550006 294.06297,163.631812 294.188912,160.760897 C294.314853,157.889981 294.377823,154.971787 294.377823,152.006227 C294.377823,149.293054 294.330596,146.579922 294.23614,143.86675 C294.141683,141.153577 294.094456,138.408897 294.094456,135.632628 L294.094456,133.219178 C294.094456,132.241174 294.141683,131.231637 294.23614,130.190535 C294.330596,129.149434 294.440793,128.155671 294.566735,127.209215 C294.692677,126.26276 294.913072,125.505607 295.227926,124.937733 C295.857635,123.612696 297.290201,122.350774 299.525667,121.15193 C301.761134,119.953087 304.216961,118.896227 306.893224,117.98132 C309.569486,117.066413 312.182739,116.340808 314.73306,115.804483 C317.28338,115.268158 319.188221,115 320.447639,115 C323.659154,115 326.492801,115.599413 328.948665,116.798257 C331.40453,117.9971 333.451053,119.621825 335.088296,121.672478 C336.725539,123.723132 337.953452,126.089235 338.772074,128.770859 C339.590695,131.452483 340,134.276033 340,137.241594 Z M323,138.005556 C323,136.36851 322.627911,135.125004 321.883721,134.275 C321.139531,133.424996 319.930233,133 318.255814,133 C317.015498,133 315.759696,133.220368 314.488372,133.661111 C313.217048,134.101854 312.054269,134.605553 311,135.172222 C311.248063,140.146321 311.341086,145.088864 311.27907,150 C312.581402,149.559257 313.914722,148.992596 315.27907,148.3 C316.643418,147.607404 317.899219,146.757412 319.046512,145.75 C320.193804,144.742588 321.139531,143.609266 321.883721,142.35 C322.627911,141.090734 323,139.642601 323,138.005556 Z M378,121.952756 C378,123.149612 377.731887,124.220468 377.195652,125.165354 C376.659418,126.110241 375.949706,126.913383 375.066496,127.574803 C374.183286,128.236224 373.205461,128.787399 372.132992,129.228346 C371.060523,129.669294 370.019613,129.984251 369.01023,130.173228 C368.884057,137.291374 368.615944,144.157447 368.205882,150.771654 C367.795821,157.38586 367.149195,164.220437 366.265985,171.275591 L366.83376,171.275591 C367.843142,171.275591 368.836739,171.385826 369.814578,171.606299 C370.792418,171.826773 371.675614,172.204722 372.464194,172.740157 C373.252775,173.275593 373.883629,173.937004 374.356777,174.724409 C374.829926,175.511815 375.066496,176.472441 375.066496,177.606299 C375.066496,179.055125 374.609126,180.314955 373.694373,181.385827 C372.77962,182.456698 371.580996,183.370075 370.098465,184.125984 C368.615935,184.881894 366.959941,185.511809 365.130435,186.015748 C363.300929,186.519688 361.47145,186.913384 359.641944,187.19685 C357.812438,187.480316 356.077587,187.685039 354.43734,187.811024 C352.797093,187.937009 351.472298,188 350.462916,188 C349.705879,188 348.775368,187.968504 347.671355,187.905512 C346.567343,187.842519 345.526433,187.653545 344.548593,187.338583 C343.570754,187.02362 342.734871,186.551184 342.040921,185.92126 C341.34697,185.291335 341,184.44095 341,183.370079 C341,182.047237 341.268113,180.866147 341.804348,179.826772 C342.340582,178.787396 343.050294,177.858272 343.933504,177.03937 C344.816714,176.220468 345.81031,175.559058 346.914322,175.055118 C348.018335,174.551179 349.138102,174.17323 350.273657,173.92126 C350.715262,170.456676 351.125318,167.007891 351.503836,163.574803 C351.882355,160.141715 352.134697,156.661435 352.26087,153.133858 C352.387042,149.543289 352.513213,146.000017 352.639386,142.503937 C352.765559,139.007857 352.89173,135.496081 353.017903,131.968504 C352.576298,132.031496 352.166242,132.07874 351.787724,132.110236 C351.409205,132.141732 351.062235,132.15748 350.746803,132.15748 C349.863593,132.15748 348.917311,132.062993 347.907928,131.874016 C346.898546,131.685038 345.952264,131.354333 345.069054,130.88189 C344.185844,130.409446 343.44459,129.826775 342.845269,129.133858 C342.245948,128.440941 341.946292,127.55906 341.946292,126.488189 C341.946292,124.346446 342.84526,122.582684 344.643223,121.19685 C346.441185,119.811017 348.586092,118.740161 351.078005,117.984252 C353.569919,117.228343 356.109109,116.708663 358.695652,116.425197 C361.282195,116.141731 363.364016,116 364.941176,116 C365.824386,116 366.991468,116.062991 368.442455,116.188976 C369.893443,116.314961 371.328637,116.598423 372.748082,117.03937 C374.167526,117.480317 375.397693,118.078736 376.438619,118.834646 C377.479545,119.590555 378,120.629915 378,121.952756 Z M426,123.77351 C426,126.062263 425.719126,128.621178 425.157371,131.450331 C424.595615,134.279484 423.893431,137.156277 423.050797,140.080795 C422.208163,143.005313 421.303126,145.850317 420.335657,148.615894 C419.368189,151.381471 418.509964,153.87681 417.760956,156.101987 C417.261618,157.500669 416.715474,159.233102 416.12251,161.299338 C415.529546,163.365573 414.842965,165.543035 414.062749,167.831788 C413.282533,170.120541 412.424307,172.40926 411.488048,174.698013 C410.551788,176.986766 409.521918,179.037077 408.398406,180.849007 C407.274895,182.660936 406.042171,184.139067 404.700199,185.283444 C403.358227,186.42782 401.907046,187 400.346614,187 C399.03585,187 397.771918,186.396033 396.554781,185.188079 C395.337643,183.980126 394.18294,182.43842 393.090637,180.562914 C391.998335,178.687408 390.968464,176.589416 390.000996,174.268874 C389.033528,171.948333 388.159698,169.675508 387.379482,167.450331 C386.599266,165.225154 385.943894,163.15895 385.413347,161.251656 C384.882799,159.344361 384.492697,157.882124 384.243028,156.864901 C382.994682,151.905935 381.808771,146.899363 380.685259,141.845033 C379.561747,136.790703 379,131.720555 379,126.634437 C379,125.362908 379.062416,124.043715 379.187251,122.676821 C379.312086,121.309927 379.624167,120.05431 380.123506,118.909934 C380.622844,117.765557 381.325029,116.827818 382.23008,116.096689 C383.135131,115.365559 384.399062,115 386.021912,115 C387.395093,115 388.659025,115.7788 389.813745,117.336424 C390.968465,118.894048 392.01394,120.91257 392.950199,123.392053 C393.886459,125.871536 394.744684,128.637071 395.5249,131.688742 C396.305117,134.740413 397.038509,137.744356 397.7251,140.700662 C398.41169,143.656968 399.067062,146.422504 399.691235,148.997351 C400.315408,151.572198 400.939572,153.622509 401.563745,155.148344 C401.938249,153.876815 402.484392,152.017231 403.202191,149.569536 C403.91999,147.121842 404.762611,144.435776 405.73008,141.511258 C406.697548,138.58674 407.758626,135.582797 408.913347,132.499338 C410.068067,129.415879 411.285186,126.618556 412.564741,124.107285 C413.844296,121.596014 415.170644,119.545703 416.543825,117.956291 C417.917006,116.366879 419.321374,115.572185 420.756972,115.572185 C421.818066,115.572185 422.691896,115.826488 423.378486,116.335099 C424.065076,116.843711 424.595616,117.511254 424.97012,118.337748 C425.344623,119.164243 425.609893,120.0543 425.765936,121.007947 C425.92198,121.961594 426,122.883439 426,123.77351 Z M463,121.952756 C463,123.149612 462.731887,124.220468 462.195652,125.165354 C461.659418,126.110241 460.949706,126.913383 460.066496,127.574803 C459.183286,128.236224 458.205461,128.787399 457.132992,129.228346 C456.060523,129.669294 455.019613,129.984251 454.01023,130.173228 C453.884057,137.291374 453.615944,144.157447 453.205882,150.771654 C452.795821,157.38586 452.149195,164.220437 451.265985,171.275591 L451.83376,171.275591 C452.843142,171.275591 453.836739,171.385826 454.814578,171.606299 C455.792418,171.826773 456.675614,172.204722 457.464194,172.740157 C458.252775,173.275593 458.883629,173.937004 459.356777,174.724409 C459.829926,175.511815 460.066496,176.472441 460.066496,177.606299 C460.066496,179.055125 459.609126,180.314955 458.694373,181.385827 C457.77962,182.456698 456.580996,183.370075 455.098465,184.125984 C453.615935,184.881894 451.959941,185.511809 450.130435,186.015748 C448.300929,186.519688 446.47145,186.913384 444.641944,187.19685 C442.812438,187.480316 441.077587,187.685039 439.43734,187.811024 C437.797093,187.937009 436.472298,188 435.462916,188 C434.705879,188 433.775368,187.968504 432.671355,187.905512 C431.567343,187.842519 430.526433,187.653545 429.548593,187.338583 C428.570754,187.02362 427.734871,186.551184 427.040921,185.92126 C426.34697,185.291335 426,184.44095 426,183.370079 C426,182.047237 426.268113,180.866147 426.804348,179.826772 C427.340582,178.787396 428.050294,177.858272 428.933504,177.03937 C429.816714,176.220468 430.81031,175.559058 431.914322,175.055118 C433.018335,174.551179 434.138102,174.17323 435.273657,173.92126 C435.715262,170.456676 436.125318,167.007891 436.503836,163.574803 C436.882355,160.141715 437.134697,156.661435 437.26087,153.133858 C437.387042,149.543289 437.513213,146.000017 437.639386,142.503937 C437.765559,139.007857 437.89173,135.496081 438.017903,131.968504 C437.576298,132.031496 437.166242,132.07874 436.787724,132.110236 C436.409205,132.141732 436.062235,132.15748 435.746803,132.15748 C434.863593,132.15748 433.917311,132.062993 432.907928,131.874016 C431.898546,131.685038 430.952264,131.354333 430.069054,130.88189 C429.185844,130.409446 428.44459,129.826775 427.845269,129.133858 C427.245948,128.440941 426.946292,127.55906 426.946292,126.488189 C426.946292,124.346446 427.84526,122.582684 429.643223,121.19685 C431.441185,119.811017 433.586092,118.740161 436.078005,117.984252 C438.569919,117.228343 441.109109,116.708663 443.695652,116.425197 C446.282195,116.141731 448.364016,116 449.941176,116 C450.824386,116 451.991468,116.062991 453.442455,116.188976 C454.893443,116.314961 456.328637,116.598423 457.748082,117.03937 C459.167526,117.480317 460.397693,118.078736 461.438619,118.834646 C462.479545,119.590555 463,120.629915 463,121.952756 Z M514,172.612137 C514,173.878634 513.887689,175.398408 513.663065,177.171504 C513.43844,178.9446 513.005242,180.638514 512.363458,182.253298 C511.721673,183.868082 510.855277,185.229546 509.764244,186.337731 C508.67321,187.445916 507.229217,188 505.43222,188 C503.057617,188 501.276692,187.145127 500.089391,185.435356 C498.90209,183.725585 498.051738,181.683389 497.53831,179.308707 C497.024883,176.934025 496.72004,174.511886 496.623772,172.042216 C496.527504,169.572547 496.447283,167.609506 496.383104,166.153034 C491.762256,166.912933 487.205654,167.577834 482.713163,168.147757 C482.584806,169.604229 482.312052,171.40896 481.894892,173.562005 C481.477732,175.71505 480.835957,177.788908 479.969548,179.783641 C479.103139,181.778374 477.980033,183.503951 476.600196,184.960422 C475.22036,186.416894 473.535701,187.145119 471.546169,187.145119 C470.005886,187.145119 468.802558,186.591035 467.936149,185.48285 C467.06974,184.374665 466.411921,183.060694 465.962672,181.540897 C465.513423,180.021101 465.240668,178.453834 465.144401,176.83905 C465.048133,175.224266 465,173.878633 465,172.802111 C465,169.192594 465.288799,165.630624 465.866405,162.116095 C466.444011,158.601566 467.117874,155.10292 467.888016,151.620053 C468.273086,149.783632 468.786506,147.630619 469.428291,145.16095 C470.070075,142.691281 470.856249,140.142493 471.786837,137.514512 C472.717424,134.88653 473.808442,132.29025 475.059921,129.725594 C476.311401,127.160937 477.73935,124.865445 479.343811,122.83905 C480.948273,120.812655 482.777331,119.166233 484.831041,117.899736 C486.884752,116.633239 489.163052,116 491.666012,116 C494.104793,116 496.22265,116.538253 498.019646,117.614776 C499.816643,118.691298 501.388991,120.116086 502.736739,121.889182 C504.084486,123.662278 505.207592,125.672812 506.10609,127.920844 C507.004589,130.168877 507.758674,132.448537 508.368369,134.759894 C508.978065,137.071252 509.491484,139.335081 509.908644,141.551451 C510.325804,143.767821 510.694825,145.730862 511.015717,147.440633 C511.850037,151.556749 512.555989,155.720296 513.133595,159.931398 C513.711201,164.142501 514,168.369372 514,172.612137 Z M496,148.789474 C496,148.02392 495.949153,146.763964 495.847458,145.009569 C495.745762,143.255175 495.525425,141.500806 495.186441,139.746411 C494.847456,137.992017 494.322037,136.429034 493.610169,135.057416 C492.898302,133.685799 491.932209,133 490.711864,133 C490.033895,133 489.389834,133.430618 488.779661,134.291866 C488.169488,135.153114 487.627121,136.237633 487.152542,137.545455 C486.677964,138.853276 486.254239,140.304617 485.881356,141.899522 C485.508473,143.494426 485.186442,145.025511 484.915254,146.492823 C484.644066,147.960135 484.440679,149.283886 484.305085,150.464115 C484.169491,151.644344 484.067797,152.489631 484,153 C488.067817,152.681019 492.067777,152.202555 496,151.564593 L496,148.789474 Z" id="TRIVIA" fill="#000000"></path>
                <path d="M293,40.0936709 C293,46.1088908 291.697277,52.0126293 289.091793,57.8050633 C286.486308,63.5974973 283.02162,68.8050402 278.697624,73.4278481 C274.373628,78.050656 269.439913,81.8379599 263.896328,84.7898734 C258.352744,87.7417869 252.642938,89.3848085 246.766739,89.7189873 C246.655867,91.7240607 246.572714,94.2582125 246.517279,97.321519 C246.461843,100.384825 246.26782,103.587325 245.935205,106.929114 C245.60259,110.270903 245.131393,113.612642 244.521598,116.95443 C243.911804,120.296219 243.024844,123.303784 241.860691,125.977215 C240.696538,128.650646 239.199793,130.822776 237.37041,132.493671 C235.541028,134.164565 233.29591,135 230.634989,135 C227.530582,135 225.063724,133.969631 223.234341,131.908861 C221.404958,129.848091 220.019083,127.369635 219.076674,124.473418 C218.134265,121.577201 217.496762,118.541788 217.164147,115.367089 C216.831532,112.192389 216.609792,109.49115 216.49892,107.263291 C216.277177,104.032895 216.138589,100.858243 216.083153,97.7392405 C216.027718,94.6202376 216,91.4455858 216,88.2151899 L216,80.1113924 C216,76.1569423 216.027718,71.645595 216.083153,66.5772152 C216.138589,61.5088354 216.221742,56.2177491 216.332613,50.7037975 C216.443485,45.1898458 216.60979,40.0658465 216.831533,35.3316456 C217.053277,30.5974447 217.302734,26.5595104 217.579914,23.2177215 C217.857093,19.8759327 218.21742,17.9265851 218.660907,17.3696203 C218.771779,17.2582278 219.104389,17.0075969 219.658747,16.6177215 C220.213106,16.2278462 220.822891,15.8379766 221.488121,15.4481013 C222.153351,15.0582259 222.763136,14.6962042 223.317495,14.3620253 C223.871853,14.0278464 224.259898,13.8050638 224.481641,13.6936709 C229.581739,10.7974539 235.180675,8.29114982 241.278618,6.17468354 C247.37656,4.05821727 253.418977,3 259.406048,3 C264.506145,3 269.134968,4.03036944 273.292657,6.09113924 C277.450345,8.15190904 280.998185,10.8809957 283.936285,14.278481 C286.874385,17.6759664 289.119503,21.6303572 290.671706,26.1417722 C292.22391,30.6531871 293,35.3037735 293,40.0936709 Z M265,43.490566 C265,41.2264038 264.472227,39.2452915 263.416667,37.5471698 C262.361106,35.8490481 260.611123,35 258.166667,35 C256.055545,35 253.944455,35.4245241 251.833333,36.2735849 C249.722212,37.1226458 247.777787,38 246,38.9056604 C246.333335,42.8679443 246.638887,46.7169625 246.916667,50.4528302 C247.194446,54.1886979 247.222223,58.037716 247,62 C248.777787,61.0943351 250.722212,60.0471758 252.833333,58.8584906 C254.944455,57.6698054 256.88888,56.33963 258.666667,54.8679245 C260.444453,53.3962191 261.944438,51.7264244 263.166667,49.8584906 C264.388895,47.9905567 265,45.8679364 265,43.490566 Z" id="WAPUU" fill="#000000"></path>
                <path d="M117,36.7994688 C117,42.9615182 116.556278,49.0464507 115.668821,55.0544489 C114.781363,61.062447 113.727524,66.9933306 112.50727,72.8472776 C112.174473,74.3877899 111.675286,76.8782475 111.009693,80.3187251 C110.3441,83.7592027 109.539854,87.584751 108.596931,91.7954847 C107.654007,96.0062185 106.516969,100.370938 105.185784,104.889774 C103.854598,109.40861 102.384768,113.516582 100.776252,117.213811 C99.1677356,120.911041 97.3928476,123.966345 95.4515347,126.379814 C93.5102218,128.793283 91.430275,130 89.2116317,130 C86.9929884,130 84.8575762,128.973007 82.8053312,126.918991 C80.7530861,124.864974 78.8672676,122.271817 77.1478191,119.139442 C75.4283705,116.007067 73.8476109,112.489617 72.4054927,108.586985 C70.9633746,104.684354 69.7154065,100.910155 68.6615509,97.2642762 C67.6076953,93.618397 66.7202513,90.2806703 65.9991922,87.250996 C65.2781332,84.2213217 64.7512133,81.9362627 64.4184168,80.3957503 C63.9746881,81.730861 63.2813725,83.8618712 62.3384491,86.7888446 C61.3955257,89.7158181 60.2030228,93.0021951 58.7609047,96.6480744 C57.3187865,100.293954 55.7102943,104.016803 53.9353796,107.816733 C52.160465,111.616664 50.3023791,115.108439 48.3610662,118.292165 C46.4197534,121.47589 44.3952717,124.094722 42.2875606,126.148738 C40.1798495,128.202755 38.0721699,129.229748 35.9644588,129.229748 C33.1911547,129.229748 30.7506837,128.100056 28.6429725,125.840637 C26.5352614,123.581219 24.7603734,120.679965 23.3182553,117.136786 C21.8761371,113.593608 20.6559016,109.639685 19.6575121,105.2749 C18.6591226,100.910115 17.8826091,96.5967455 17.3279483,92.3346614 C16.7732875,88.0725772 16.3295655,84.09298 15.996769,80.3957503 C15.6639725,76.6985207 15.4421115,73.7715911 15.3311793,71.6148738 C14.9983828,66.6852343 14.6933239,61.858368 14.4159935,57.1341301 C14.1386631,52.4098923 14,47.583026 14,42.6533865 C14,40.9074725 14.0554653,38.5197141 14.1663974,35.4900398 C14.2773296,32.4603656 14.693319,29.4820863 15.414378,26.5551129 C16.1354371,23.6281394 17.2447421,21.0606573 18.7423263,18.8525896 C20.2399106,16.6445219 22.4307879,15.4378054 25.3150242,15.2324037 C27.7555319,15.1297029 29.8632114,16.0539964 31.638126,18.0053121 C33.4130406,19.9566277 34.9106024,22.5497846 36.1308562,25.7848606 C37.35111,29.0199365 38.3217519,32.6144114 39.042811,36.5683931 C39.7638701,40.5223748 40.3185226,44.3479231 40.7067851,48.0451527 C41.0950477,51.7423824 41.3446413,55.1314587 41.4555735,58.2124834 C41.5665057,61.2935081 41.5665057,63.5528923 41.4555735,64.9907039 L41.2891761,68.9960159 C41.6219726,67.6609052 42.2043577,65.5555699 43.0363489,62.6799469 C43.8683402,59.8043238 44.8944473,56.5436216 46.1147011,52.8977424 C47.3349549,49.2518631 48.6383883,45.5033393 50.0250404,41.6520584 C51.4116924,37.8007776 52.8815216,34.2833271 54.4345719,31.0996016 C55.9876222,27.9158761 57.5406492,25.2713695 59.0936995,23.1660027 C60.6467498,21.0606358 62.1443116,19.9566185 63.5864297,19.8539177 C65.4722765,19.7512168 67.2748972,20.7782097 68.9943457,22.934927 C70.7137943,25.0916442 72.2668213,27.8901997 73.6534733,31.3306773 C75.0401254,34.7711549 76.2880935,38.5967032 77.3974152,42.8074369 C78.5067368,47.0181707 79.4773787,51.1004672 80.30937,55.0544489 C81.1413612,59.0084306 81.7792116,62.5772307 82.2229402,65.7609562 C82.6666689,68.9446817 82.9994604,71.2040659 83.2213247,72.5391766 C83.3322569,70.8959635 83.6095831,68.3028066 84.0533118,64.7596282 C84.4970405,61.2164497 85.1071582,57.2625274 85.8836834,52.8977424 C86.6602085,48.5329574 87.6308504,44.0655386 88.7956381,39.4953519 C89.9604259,34.9251653 91.3193245,30.7401695 92.8723748,26.940239 C94.4254251,23.1403086 96.2003131,20.0336553 98.1970921,17.6201859 C100.193871,15.2067166 102.412481,14 104.852989,14 C107.626293,14 109.844903,14.8472691 111.508885,16.5418327 C113.172868,18.2363963 114.393103,20.2903819 115.169628,22.7038513 C115.946154,25.1173206 116.445341,27.633453 116.667205,30.252324 C116.889069,32.871195 117,35.0535548 117,36.7994688 Z M209,104.208443 C209,106.248911 208.805175,108.697435 208.415521,111.55409 C208.025866,114.410744 207.2744,117.139829 206.1611,119.741425 C205.047801,122.343021 203.544869,124.536491 201.652259,126.3219 C199.75965,128.107309 197.254763,129 194.137525,129 C190.018316,129 186.928956,127.622705 184.869352,124.868074 C182.809747,122.113443 181.334648,118.823238 180.444008,114.997361 C179.553368,111.171485 179.024559,107.269149 178.857564,103.290237 C178.690569,99.3113258 178.551409,96.1486485 178.440079,93.8021108 C170.424321,95.0263913 162.520013,96.0976207 154.726916,97.0158311 C154.504256,99.3623688 154.03111,102.269991 153.307466,105.738786 C152.583821,109.207581 151.470538,112.548797 149.967583,115.762533 C148.464629,118.976269 146.516384,121.756365 144.12279,124.102902 C141.729196,126.44944 138.806828,127.622691 135.355599,127.622691 C132.68368,127.622691 130.596275,126.73 129.09332,124.944591 C127.590366,123.159182 126.449251,121.042229 125.669941,118.593668 C124.890631,116.145106 124.417486,113.620066 124.250491,111.01847 C124.083496,108.416874 124,106.248909 124,104.514512 C124,98.6991794 124.500977,92.9604505 125.502947,87.298153 C126.504917,81.6358556 127.673864,75.9991485 129.009823,70.3878628 C129.677803,67.4291849 130.568429,63.9604421 131.681729,59.9815303 C132.795028,56.0026186 134.1588,51.8962393 135.773084,47.6622691 C137.387369,43.428299 139.27995,39.2454032 141.450884,35.1134565 C143.621818,30.9815097 146.098873,27.2832177 148.882122,24.0184697 C151.665371,20.7537216 154.838227,18.1011536 158.400786,16.060686 C161.963345,14.0202185 165.915499,13 170.257367,13 C174.487906,13 178.161739,13.8671857 181.278978,15.6015831 C184.396217,17.3359805 187.12376,19.6314721 189.46169,22.4881266 C191.799619,25.3447812 193.747864,28.5839749 195.306483,32.2058047 C196.865103,35.8276346 198.17321,39.5004211 199.230845,43.2242744 C200.288479,46.9481277 201.179106,50.5954087 201.90275,54.1662269 C202.626395,57.7370451 203.266533,60.8997224 203.823183,63.6543536 C205.270472,70.2858731 206.495083,76.9938095 207.497053,83.7783641 C208.499023,90.5629187 209,97.372877 209,104.208443 Z M177,66.2631579 C177,65.0382714 176.915255,63.0223426 176.745763,60.215311 C176.57627,57.4082794 176.209042,54.60129 175.644068,51.7942584 C175.079093,48.9872268 174.203396,46.4864544 173.016949,44.291866 C171.830503,42.0972777 170.220349,41 168.186441,41 C167.056492,41 165.983056,41.6889883 164.966102,43.0669856 C163.949147,44.444983 163.045202,46.1802128 162.254237,48.2727273 C161.463273,50.3652417 160.757065,52.6873876 160.135593,55.2392344 C159.514121,57.7910813 158.977403,60.2408176 158.525424,62.5885167 C158.073444,64.9362159 157.734464,67.054217 157.508475,68.9425837 C157.282485,70.8309504 157.112995,72.183409 157,73 C163.779695,72.4896306 170.446295,71.724088 177,70.7033493 L177,66.2631579 Z M300,45.0025316 C300,50.5164833 298.697277,55.9282435 296.091793,61.2379747 C293.486308,66.5477059 290.02162,71.3212868 285.697624,75.5588608 C281.373628,79.7964347 276.439913,83.2681299 270.896328,85.9740506 C265.352744,88.6799713 259.642938,90.1860744 253.766739,90.4924051 C253.655867,92.3303889 253.572714,94.6533615 253.517279,97.4613924 C253.461843,100.269423 253.26782,103.205048 252.935205,106.268354 C252.60259,109.331661 252.131393,112.394921 251.521598,115.458228 C250.911804,118.521534 250.024844,121.278469 248.860691,123.729114 C247.696538,126.179759 246.199793,128.170878 244.37041,129.702532 C242.541028,131.234185 240.29591,132 237.634989,132 C234.530582,132 232.063724,131.055495 230.234341,129.166456 C228.404958,127.277417 227.019083,125.005499 226.076674,122.350633 C225.134265,119.695767 224.496762,116.913306 224.164147,114.003165 C223.831532,111.093023 223.609792,108.616888 223.49892,106.574684 C223.277177,103.613487 223.138589,100.70339 223.083153,97.8443038 C223.027718,94.9852178 223,92.0751203 223,89.1139241 L223,81.685443 C223,78.0605304 223.027718,73.9251287 223.083153,69.2791139 C223.138589,64.6330991 223.221742,59.7829367 223.332613,54.728481 C223.443485,49.6740254 223.60979,44.9770259 223.831533,40.6373418 C224.053277,36.2976576 224.302734,32.5962178 224.579914,29.5329114 C224.857093,26.4696049 225.21742,24.682703 225.660907,24.1721519 C225.771779,24.0700422 226.104389,23.8402971 226.658747,23.4829114 C227.213106,23.1255256 227.822891,22.7681452 228.488121,22.4107595 C229.153351,22.0533737 229.763136,21.7215205 230.317495,21.4151899 C230.871853,21.1088592 231.259898,20.9046419 231.481641,20.8025316 C236.581739,18.1476661 242.180675,15.8502207 248.278618,13.9101266 C254.37656,11.9700325 260.418977,11 266.406048,11 C271.506145,11 276.134968,11.9445053 280.292657,13.8335443 C284.450345,15.7225833 287.998185,18.224246 290.936285,21.3386076 C293.874385,24.4529692 296.119503,28.0778274 297.671706,32.2132911 C299.22391,36.3487549 300,40.6117924 300,45.0025316 Z M272,47.8616352 C272,45.7651887 271.472227,43.9308255 270.416667,42.3584906 C269.361106,40.7861557 267.611123,40 265.166667,40 C263.055545,40 260.944455,40.3930778 258.833333,41.1792453 C256.722212,41.9654127 254.777787,42.7777736 253,43.6163522 C253.333335,47.2851336 253.638887,50.8490393 253.916667,54.3081761 C254.194446,57.7673129 254.222223,61.3312186 254,65 C255.777787,64.1614214 257.722212,63.1918294 259.833333,62.091195 C261.944455,60.9905605 263.88888,59.7589167 265.666667,58.3962264 C267.444453,57.0335362 268.944438,55.48743 270.166667,53.7578616 C271.388895,52.0282932 272,50.0629041 272,47.8616352 Z M397,73.3333333 C397,77.5195405 396.77778,81.8333111 396.333333,86.2747748 C395.888887,90.7162384 395.111117,95.0300091 394,99.2162162 C392.888883,103.402423 391.361121,107.35884 389.416667,111.085586 C387.472213,114.812331 385.000015,118.079566 382,120.887387 C378.999985,123.695209 375.38891,125.915908 371.166667,127.54955 C366.944423,129.183191 362.000028,130 356.333333,130 C347.999958,130 340.750031,128.213231 334.583333,124.63964 C328.416636,121.066048 323.277798,116.497025 319.166667,110.932432 C315.055535,105.36784 312.00001,99.1396741 310,92.2477477 C307.99999,85.3558214 307,78.5405742 307,71.8018018 L307,69.8108108 C307,69.1981951 307.055555,68.6366392 307.166667,68.1261261 C307.277778,65.9819713 307.472221,63.0720905 307.75,59.3963964 C308.027779,55.7207023 308.5,51.7898107 309.166667,47.6036036 C309.833337,43.4173965 310.694439,39.1291511 311.75,34.7387387 C312.805561,30.3483264 314.194436,26.4174348 315.916667,22.9459459 C317.638898,19.4744571 319.72221,16.6156268 322.166667,14.3693694 C324.611123,12.1231119 327.499983,11 330.833333,11 C333.27779,11 335.333325,11.663657 337,12.990991 C338.666675,14.318325 340.027773,15.9774675 341.083333,17.9684685 C342.138894,19.9594694 342.888887,22.0525416 343.333333,24.2477477 C343.77778,26.4429539 344,28.4594503 344,30.2972973 C344,33.0540678 343.694447,35.8363223 343.083333,38.6441441 C342.472219,41.451966 341.888892,44.2342205 341.333333,46.990991 C340.44444,51.3814033 339.722225,55.7717498 339.166667,60.1621622 C338.611108,64.5525745 338.333333,69.0450221 338.333333,73.6396396 C338.333333,75.9879997 338.472221,78.84683 338.75,82.2162162 C339.027779,85.5856024 339.722217,88.8273118 340.833333,91.9414414 C341.94445,95.0555711 343.527767,97.7101992 345.583333,99.9054054 C347.638899,102.100612 350.444427,103.198198 354,103.198198 C357.444462,103.198198 360.194434,102.126137 362.25,99.981982 C364.305566,97.8378271 365.833328,95.2853001 366.833333,92.3243243 C367.833338,89.3633486 368.472221,86.2492656 368.75,82.981982 C369.027779,79.7146984 369.166667,76.9069186 369.166667,74.5585586 C369.166667,67.8197861 368.555562,61.1576906 367.333333,54.5720721 C366.111105,47.9864536 364.50001,41.4264591 362.5,34.8918919 C361.944442,33.1561475 361.472224,31.4204291 361.083333,29.6846847 C360.694443,27.9489403 360.5,26.2132219 360.5,24.4774775 C360.5,21.6186043 361.416658,19.1171278 363.25,16.972973 C365.083342,14.8288181 367.66665,13.7567568 371,13.7567568 C373.777792,13.7567568 376.361099,14.7522423 378.75,16.7432432 C381.138901,18.7342442 383.277768,21.3378218 385.166667,24.5540541 C387.055565,27.7702864 388.694438,31.3693495 390.083333,35.3513514 C391.472229,39.3333532 392.666662,43.2897701 393.666667,47.2207207 C394.666672,51.1516713 395.416664,54.903886 395.916667,58.4774775 C396.416669,62.0510689 396.722222,64.9609497 396.833333,67.2072072 C396.944445,68.2282333 397,69.2237189 397,70.1936937 C397,71.1636685 397,72.2102046 397,73.3333333 Z M500,73.3333333 C500,77.5195405 499.77778,81.8333111 499.333333,86.2747748 C498.888887,90.7162384 498.111117,95.0300091 497,99.2162162 C495.888883,103.402423 494.361121,107.35884 492.416667,111.085586 C490.472213,114.812331 488.000015,118.079566 485,120.887387 C481.999985,123.695209 478.38891,125.915908 474.166667,127.54955 C469.944423,129.183191 465.000028,130 459.333333,130 C450.999958,130 443.750031,128.213231 437.583333,124.63964 C431.416636,121.066048 426.277798,116.497025 422.166667,110.932432 C418.055535,105.36784 415.00001,99.1396741 413,92.2477477 C410.99999,85.3558214 410,78.5405742 410,71.8018018 L410,69.8108108 C410,69.1981951 410.055555,68.6366392 410.166667,68.1261261 C410.277778,65.9819713 410.472221,63.0720905 410.75,59.3963964 C411.027779,55.7207023 411.5,51.7898107 412.166667,47.6036036 C412.833337,43.4173965 413.694439,39.1291511 414.75,34.7387387 C415.805561,30.3483264 417.194436,26.4174348 418.916667,22.9459459 C420.638898,19.4744571 422.72221,16.6156268 425.166667,14.3693694 C427.611123,12.1231119 430.499983,11 433.833333,11 C436.27779,11 438.333325,11.663657 440,12.990991 C441.666675,14.318325 443.027773,15.9774675 444.083333,17.9684685 C445.138894,19.9594694 445.888887,22.0525416 446.333333,24.2477477 C446.77778,26.4429539 447,28.4594503 447,30.2972973 C447,33.0540678 446.694447,35.8363223 446.083333,38.6441441 C445.472219,41.451966 444.888892,44.2342205 444.333333,46.990991 C443.44444,51.3814033 442.722225,55.7717498 442.166667,60.1621622 C441.611108,64.5525745 441.333333,69.0450221 441.333333,73.6396396 C441.333333,75.9879997 441.472221,78.84683 441.75,82.2162162 C442.027779,85.5856024 442.722217,88.8273118 443.833333,91.9414414 C444.94445,95.0555711 446.527767,97.7101992 448.583333,99.9054054 C450.638899,102.100612 453.444427,103.198198 457,103.198198 C460.444462,103.198198 463.194434,102.126137 465.25,99.981982 C467.305566,97.8378271 468.833328,95.2853001 469.833333,92.3243243 C470.833338,89.3633486 471.472221,86.2492656 471.75,82.981982 C472.027779,79.7146984 472.166667,76.9069186 472.166667,74.5585586 C472.166667,67.8197861 471.555562,61.1576906 470.333333,54.5720721 C469.111105,47.9864536 467.50001,41.4264591 465.5,34.8918919 C464.944442,33.1561475 464.472224,31.4204291 464.083333,29.6846847 C463.694442,27.9489403 463.5,26.2132219 463.5,24.4774775 C463.5,21.6186043 464.416658,19.1171278 466.25,16.972973 C468.083342,14.8288181 470.66665,13.7567568 474,13.7567568 C476.777792,13.7567568 479.361099,14.7522423 481.75,16.7432432 C484.138901,18.7342442 486.277768,21.3378218 488.166667,24.5540541 C490.055565,27.7702864 491.694437,31.3693495 493.083333,35.3513514 C494.472229,39.3333532 495.666662,43.2897701 496.666667,47.2207207 C497.666672,51.1516713 498.416664,54.903886 498.916667,58.4774775 C499.416669,62.0510689 499.722222,64.9609497 499.833333,67.2072072 C499.944445,68.2282333 500,69.2237189 500,70.1936937 C500,71.1636685 500,72.2102046 500,73.3333333 Z" id="WAPUU" fill="#FFFFFF"></path>
                <path d="M307,127.267857 C307,128.522115 306.43094,129.663473 305.292802,130.691964 C304.154664,131.720456 302.783082,132.623508 301.178016,133.401148 C299.572949,134.178788 297.924133,134.81845 296.231518,135.320153 C294.538902,135.821856 293.138138,136.173043 292.029183,136.373724 C291.562254,140.236839 291.197472,144.087353 290.934825,147.925383 C290.672178,151.763412 290.540856,155.613926 290.540856,159.477041 C290.540856,161.534024 290.599221,163.565891 290.715953,165.572704 C290.832685,167.579517 290.891051,169.586299 290.891051,171.593112 C290.891051,172.496178 290.788912,173.487027 290.58463,174.565689 C290.380349,175.644351 290.030158,176.660284 289.534047,177.61352 C289.037935,178.566756 288.352144,179.36947 287.476654,180.021684 C286.601163,180.673898 285.521407,181 284.237354,181 C282.719837,181 281.508759,180.636271 280.604086,179.908801 C279.699412,179.181331 278.99903,178.290822 278.502918,177.237245 C278.006807,176.183668 277.671207,175.067395 277.496109,173.888393 C277.321011,172.70939 277.233463,171.643287 277.233463,170.690051 C277.116731,167.679832 277.029183,164.657116 276.970817,161.621811 C276.912451,158.586507 276.883268,155.538706 276.883268,152.478316 C276.883268,149.91963 276.89786,147.411152 276.927043,144.952806 C276.956226,142.49446 276.970817,139.985982 276.970817,137.427296 C276.153692,137.527637 275.321989,137.602891 274.475681,137.653061 C273.629373,137.703232 272.768487,137.728316 271.892996,137.728316 C271.192604,137.728316 270.273352,137.665604 269.135214,137.540179 C267.997076,137.414753 266.902729,137.18899 265.85214,136.862883 C264.801556,136.536776 263.896891,136.085249 263.138132,135.508291 C262.379374,134.931332 262,134.191331 262,133.288265 C262,131.783156 262.685791,130.466205 264.057393,129.337372 C265.428995,128.20854 267.17995,127.230234 269.310311,126.402423 C271.440672,125.574613 273.804462,124.872239 276.401751,124.295281 C278.99904,123.718322 281.567108,123.266796 284.106031,122.940689 C286.644954,122.614582 288.979561,122.376276 291.109922,122.225765 C293.240283,122.075254 294.889099,122 296.05642,122 C297.165375,122 298.34727,122.037627 299.60214,122.112883 C300.85701,122.188138 302.038905,122.401359 303.14786,122.752551 C304.256815,123.103743 305.176066,123.630524 305.905642,124.332908 C306.635218,125.035293 307,126.013599 307,127.267857 Z M346,139.559153 C346,142.996281 345.080091,146.084669 343.240246,148.824408 C341.400401,151.564148 338.956894,153.980064 335.909651,156.072229 C336.829573,157.267752 337.778229,158.662508 338.755647,160.256538 C339.733064,161.850568 340.609852,163.531747 341.386037,165.300125 C342.162222,167.068502 342.794659,168.836853 343.283368,170.60523 C343.772076,172.373608 344.016427,174.004974 344.016427,175.499377 C344.016427,177.093408 343.570846,178.525523 342.679671,179.795766 C341.788497,181.066009 340.279271,181.701121 338.151951,181.701121 C336.369601,181.701121 334.831629,180.95393 333.537988,179.459527 C332.244347,177.965123 331.094461,176.184319 330.088296,174.117061 C329.08213,172.049803 328.162222,169.945216 327.328542,167.803238 C326.494862,165.66126 325.704316,163.942721 324.956879,162.647572 C323.921966,162.946452 322.915816,163.282688 321.938398,163.656289 C320.960981,164.02989 319.954831,164.391032 318.919918,164.739726 C318.862423,165.835622 318.761808,167.342456 318.61807,169.260274 C318.474332,171.178092 318.158113,173.083428 317.669405,174.976339 C317.180696,176.86925 316.447643,178.513069 315.470226,179.907846 C314.492808,181.302622 313.141692,182 311.416838,182 C309.519507,182 308.053393,181.327529 307.01848,179.982565 C305.983568,178.637602 305.250516,177.043596 304.819302,175.200498 C304.388088,173.3574 304.143737,171.476971 304.086242,169.559153 C304.028747,167.641335 304,166.134501 304,165.038605 C304,162.697373 304.057494,160.393536 304.172485,158.127024 C304.287475,155.860512 304.344969,153.556674 304.344969,151.215442 C304.344969,149.073464 304.301848,146.931518 304.215606,144.789539 C304.129363,142.647561 304.086242,140.480708 304.086242,138.288917 L304.086242,136.383562 C304.086242,135.611453 304.129363,134.81445 304.215606,133.992528 C304.301848,133.170606 304.402463,132.386056 304.517454,131.638854 C304.632444,130.891653 304.833674,130.2939 305.12115,129.845579 C305.696101,128.799497 307.004097,127.803243 309.045175,126.856787 C311.086253,125.910332 313.32853,125.075969 315.772074,124.353674 C318.215618,123.631379 320.601631,123.058533 322.930185,122.635118 C325.258739,122.211704 326.997941,122 328.147844,122 C331.080097,122 333.66734,122.473221 335.909651,123.419676 C338.151962,124.366132 340.020526,125.648809 341.5154,127.267746 C343.010274,128.886683 344.131413,130.754659 344.87885,132.871731 C345.626287,134.988803 346,137.217921 346,139.559153 Z M330,139.827778 C330,138.57592 329.627911,137.625003 328.883721,136.975 C328.139531,136.324997 326.930233,136 325.255814,136 C324.015498,136 322.759696,136.168517 321.488372,136.505556 C320.217048,136.842594 319.054269,137.227776 318,137.661111 C318.248063,141.464834 318.341086,145.244426 318.27907,149 C319.581402,148.662961 320.914722,148.229632 322.27907,147.7 C323.643418,147.170368 324.899219,146.520374 326.046512,145.75 C327.193804,144.979626 328.139531,144.112968 328.883721,143.15 C329.627911,142.187032 330,141.079636 330,139.827778 Z M381,127.629921 C381,128.56081 380.753626,129.393697 380.26087,130.128609 C379.768113,130.863521 379.115946,131.488186 378.304348,132.002625 C377.49275,132.517063 376.594208,132.945755 375.608696,133.288714 C374.623183,133.631673 373.666671,133.87664 372.73913,134.023622 C372.623188,139.559958 372.376813,144.900237 372,150.044619 C371.623187,155.189002 371.02899,160.504784 370.217391,165.992126 L370.73913,165.992126 C371.666671,165.992126 372.579706,166.077864 373.478261,166.249344 C374.376816,166.420823 375.188402,166.714784 375.913043,167.131234 C376.637685,167.547684 377.217389,168.062114 377.652174,168.674541 C378.086959,169.286967 378.304348,170.034121 378.304348,170.91601 C378.304348,172.042875 377.884062,173.022743 377.043478,173.855643 C376.202894,174.688543 375.101456,175.398947 373.73913,175.986877 C372.376805,176.574806 370.855081,177.06474 369.173913,177.456693 C367.492745,177.848646 365.811603,178.154855 364.130435,178.375328 C362.449267,178.595802 360.85508,178.75503 359.347826,178.853018 C357.840572,178.951007 356.623193,179 355.695652,179 C355,179 354.144933,178.975503 353.130435,178.926509 C352.115937,178.877515 351.159425,178.730535 350.26087,178.485564 C349.362314,178.240594 348.594206,177.873143 347.956522,177.383202 C347.318837,176.893261 347,176.23185 347,175.39895 C347,174.370074 347.246374,173.451448 347.73913,172.643045 C348.231887,171.834642 348.884054,171.111989 349.695652,170.475066 C350.50725,169.838142 351.420285,169.323711 352.434783,168.931759 C353.44928,168.539806 354.478256,168.245845 355.521739,168.049869 C355.927538,165.355192 356.304346,162.672804 356.652174,160.002625 C357,157.332445 357.231883,154.625561 357.347826,151.88189 C357.463769,149.089225 357.57971,146.333347 357.695652,143.614173 C357.811595,140.895 357.927536,138.163618 358.043478,135.419948 C357.637679,135.468942 357.260871,135.505687 356.913043,135.530184 C356.565216,135.554681 356.246378,135.566929 355.956522,135.566929 C355.144923,135.566929 354.275367,135.493439 353.347826,135.346457 C352.420285,135.199474 351.550729,134.942259 350.73913,134.574803 C349.927532,134.207347 349.24638,133.754158 348.695652,133.215223 C348.144925,132.676288 347.869565,131.99038 347.869565,131.15748 C347.869565,129.49168 348.695644,128.119865 350.347826,127.041995 C352,125.964124 353.971003,125.131237 356.26087,124.543307 C358.550736,123.955378 360.884046,123.551182 363.26087,123.330709 C365.637693,123.110235 367.550717,123 369,123 C369.811598,123 370.884051,123.048993 372.217391,123.146982 C373.550731,123.24497 374.869559,123.46544 376.173913,123.808399 C377.478267,124.151358 378.608691,124.616795 379.565217,125.204724 C380.521744,125.792654 381,126.601045 381,127.629921 Z M425,128.823841 C425,130.603982 424.74303,132.594249 424.229084,134.794702 C423.715137,136.995154 423.072713,139.23266 422.301793,141.507285 C421.530873,143.78191 420.70286,145.994691 419.817729,148.145695 C418.932598,150.296699 418.147414,152.237519 417.462151,153.968212 C417.00531,155.056076 416.505647,156.403524 415.963147,158.010596 C415.420648,159.617668 414.7925,161.311249 414.078685,163.091391 C413.36487,164.871532 412.579686,166.651647 411.723108,168.431788 C410.86653,170.211929 409.924308,171.806615 408.896414,173.215894 C407.868521,174.625173 406.74071,175.77483 405.512948,176.664901 C404.285186,177.554971 402.95751,178 401.52988,178 C400.330671,178 399.174308,177.530248 398.060757,176.590728 C396.947206,175.651209 395.890775,174.452104 394.891434,172.993377 C393.892093,171.534651 392.949872,169.902879 392.064741,168.098013 C391.17961,166.293148 390.38015,164.525395 389.666335,162.794702 C388.95252,161.064009 388.352924,159.456961 387.86753,157.97351 C387.382136,156.490059 387.025234,155.352763 386.796813,154.561589 C385.654709,150.704616 384.569726,146.810616 383.541833,142.87947 C382.513939,138.948325 382,135.004876 382,131.049007 C382,130.060039 382.057104,129.034001 382.171315,127.970861 C382.285525,126.907721 382.571047,125.93113 383.027888,125.04106 C383.48473,124.150989 384.127154,123.421636 384.955179,122.85298 C385.783205,122.284324 386.939568,122 388.424303,122 C389.680617,122 390.83698,122.605733 391.893426,123.817219 C392.949872,125.028704 393.90637,126.598666 394.762948,128.527152 C395.619526,130.455639 396.404711,132.606611 397.118526,134.980132 C397.832341,137.353654 398.503317,139.690055 399.131474,141.989404 C399.759631,144.288753 400.359227,146.439725 400.930279,148.442384 C401.501331,150.445043 402.072374,152.039729 402.643426,153.22649 C402.986057,152.237523 403.48572,150.791179 404.14243,148.887417 C404.79914,146.983655 405.570049,144.894493 406.455179,142.619868 C407.34031,140.345242 408.311084,138.008842 409.36753,135.610596 C410.423976,133.21235 411.537511,131.036654 412.708167,129.083444 C413.878824,127.130233 415.092291,125.535547 416.348606,124.299338 C417.60492,123.063128 418.889768,122.445033 420.203187,122.445033 C421.173976,122.445033 421.973436,122.642824 422.601594,123.038411 C423.229751,123.433998 423.715138,123.953198 424.057769,124.596026 C424.4004,125.238855 424.643094,125.931122 424.785857,126.672848 C424.92862,127.414573 425,128.131564 425,128.823841 Z M458,127.629921 C458,128.56081 457.753626,129.393697 457.26087,130.128609 C456.768113,130.863521 456.115946,131.488186 455.304348,132.002625 C454.49275,132.517063 453.594208,132.945755 452.608696,133.288714 C451.623183,133.631673 450.666671,133.87664 449.73913,134.023622 C449.623188,139.559958 449.376813,144.900237 449,150.044619 C448.623187,155.189002 448.02899,160.504784 447.217391,165.992126 L447.73913,165.992126 C448.666671,165.992126 449.579706,166.077864 450.478261,166.249344 C451.376816,166.420823 452.188402,166.714784 452.913043,167.131234 C453.637685,167.547684 454.217389,168.062114 454.652174,168.674541 C455.086959,169.286967 455.304348,170.034121 455.304348,170.91601 C455.304348,172.042875 454.884062,173.022743 454.043478,173.855643 C453.202894,174.688543 452.101456,175.398947 450.73913,175.986877 C449.376805,176.574806 447.855081,177.06474 446.173913,177.456693 C444.492745,177.848646 442.811603,178.154855 441.130435,178.375328 C439.449267,178.595802 437.85508,178.75503 436.347826,178.853018 C434.840572,178.951007 433.623193,179 432.695652,179 C432,179 431.144933,178.975503 430.130435,178.926509 C429.115937,178.877515 428.159425,178.730535 427.26087,178.485564 C426.362314,178.240594 425.594206,177.873143 424.956522,177.383202 C424.318837,176.893261 424,176.23185 424,175.39895 C424,174.370074 424.246374,173.451448 424.73913,172.643045 C425.231887,171.834642 425.884054,171.111989 426.695652,170.475066 C427.50725,169.838142 428.420285,169.323711 429.434783,168.931759 C430.44928,168.539806 431.478256,168.245845 432.521739,168.049869 C432.927538,165.355192 433.304346,162.672804 433.652174,160.002625 C434,157.332445 434.231883,154.625561 434.347826,151.88189 C434.463769,149.089225 434.57971,146.333347 434.695652,143.614173 C434.811595,140.895 434.927536,138.163618 435.043478,135.419948 C434.637679,135.468942 434.260871,135.505687 433.913043,135.530184 C433.565216,135.554681 433.246378,135.566929 432.956522,135.566929 C432.144923,135.566929 431.275367,135.493439 430.347826,135.346457 C429.420285,135.199474 428.550729,134.942259 427.73913,134.574803 C426.927532,134.207347 426.24638,133.754158 425.695652,133.215223 C425.144925,132.676288 424.869565,131.99038 424.869565,131.15748 C424.869565,129.49168 425.695644,128.119865 427.347826,127.041995 C429,125.964124 430.971003,125.131237 433.26087,124.543307 C435.550736,123.955378 437.884046,123.551182 440.26087,123.330709 C442.637693,123.110235 444.550717,123 446,123 C446.811598,123 447.884051,123.048993 449.217391,123.146982 C450.550731,123.24497 451.869559,123.46544 453.173913,123.808399 C454.478267,124.151358 455.608691,124.616795 456.565217,125.204724 C457.521744,125.792654 458,126.601045 458,127.629921 Z M505,167.031662 C505,168.016716 504.896858,169.198762 504.69057,170.577836 C504.484282,171.956911 504.086447,173.2744 503.497053,174.530343 C502.907659,175.786286 502.111989,176.845202 501.11002,177.707124 C500.10805,178.569046 498.781934,179 497.131631,179 C494.950873,179 493.31533,178.335099 492.224951,177.005277 C491.134572,175.675455 490.353637,174.08708 489.882122,172.240106 C489.410607,170.393131 489.130649,168.509244 489.04224,166.588391 C488.953831,164.667537 488.880157,163.140727 488.821218,162.007916 C484.577582,162.598948 480.392948,163.116093 476.267191,163.559367 C476.149312,164.692178 475.898823,166.095858 475.515717,167.770449 C475.132611,169.445039 474.543226,171.05804 473.747544,172.609499 C472.951862,174.160958 471.920439,175.503073 470.653242,176.635884 C469.386045,177.768695 467.838909,178.335092 466.011788,178.335092 C464.597242,178.335092 463.492145,177.904138 462.696464,177.042216 C461.900782,176.180295 461.296662,175.158317 460.884086,173.976253 C460.471511,172.794189 460.221022,171.575204 460.132613,170.319261 C460.044204,169.063318 460,168.016715 460,167.17942 C460,164.372018 460.265223,161.601597 460.795678,158.868074 C461.326132,156.134551 461.944987,153.413382 462.652259,150.704485 C463.005896,149.276158 463.477404,147.601593 464.066798,145.680739 C464.656192,143.759885 465.378188,141.777495 466.232809,139.733509 C467.087431,137.689524 468.089385,135.670195 469.238703,133.675462 C470.388021,131.680729 471.699403,129.895346 473.172888,128.319261 C474.646373,126.743176 476.32612,125.462626 478.212181,124.477573 C480.098241,123.492519 482.190558,123 484.489194,123 C486.728891,123 488.673862,123.418641 490.324165,124.255937 C491.974468,125.093232 493.418461,126.2014 494.656189,127.580475 C495.893916,128.95955 496.92534,130.523298 497.750491,132.271768 C498.575643,134.020237 499.26817,135.793307 499.828094,137.591029 C500.388019,139.388751 500.859527,141.149508 501.242633,142.873351 C501.625739,144.597194 501.964635,146.124004 502.259332,147.453826 C503.025544,150.655249 503.673868,153.893563 504.204322,157.168865 C504.734777,160.444168 505,163.731734 505,167.031662 Z M488,148.631579 C488,148.019136 487.95339,147.011171 487.860169,145.607656 C487.766949,144.20414 487.564973,142.800645 487.254237,141.397129 C486.943501,139.993613 486.461868,138.743227 485.809322,137.645933 C485.156776,136.548639 484.271192,136 483.152542,136 C482.53107,136 481.940681,136.344494 481.381356,137.033493 C480.822031,137.722491 480.324861,138.590106 479.889831,139.636364 C479.4548,140.682621 479.066386,141.843694 478.724576,143.119617 C478.382767,144.395541 478.087572,145.620409 477.838983,146.794258 C477.590394,147.968108 477.403955,149.027109 477.279661,149.971292 C477.155367,150.915475 477.062147,151.591704 477,152 C480.728832,151.744815 484.395462,151.362044 488,150.851675 L488,148.631579 Z" id="TRIVIA" fill="#FFFFFF"></path>
            </g>
        </g>
    </g>
</svg>